<svg width="34" height="35" viewBox="0 0 34 35" fill="none" xmlns="http://www.w3.org/2000/svg">
<path d="M17 0.435364C26.3888 0.435364 34 8.04652 34 17.4354C34 26.8242 26.3888 34.4354 17 34.4354C7.69235 34.4354 0.133001 26.9553 0.00292969 17.6785L0 17.6776L0.00292969 17.6717C0.00185791 17.593 0 17.5143 0 17.4354C0 8.04652 7.61116 0.435364 17 0.435364ZM1.54102 18.5672C2.12068 26.5992 8.82023 32.9354 17 32.9354C19.4204 32.9354 21.7109 32.3798 23.752 31.3904L1.54102 18.5672ZM3.43652 9.9295C2.28535 12.0053 1.59639 14.3727 1.50977 16.8934L25.2148 30.5799C27.2817 29.2854 29.0208 27.5176 30.2812 25.4276L3.43652 9.9295ZM9.35742 3.94806C7.29241 5.12072 5.5233 6.75374 4.18945 8.70782L30.9648 24.1678C31.9482 22.1317 32.5 19.848 32.5 17.4354C32.5 17.393 32.4984 17.3507 32.498 17.3084L9.35742 3.94806ZM17 1.93536C14.8341 1.93536 12.7717 2.3791 10.8994 3.18146L32.3896 15.5897C31.4771 7.89938 24.9358 1.93536 17 1.93536Z" fill="white"/>
</svg>
