<svg xmlns="http://www.w3.org/2000/svg" xml:space="preserve" fill-rule="evenodd" stroke-linejoin="round" stroke-miterlimit="2" clip-rule="evenodd" viewBox="0 0 1520 503"><path fill="#606369" d="M1505.285 73.758c0-32.584-26.413-59.03-59.017-59.03-32.575 0-59.004 26.446-59.004 59.03 0 32.604 26.429 59.025 59.004 59.025 32.604 0 59.017-26.421 59.017-59.025m-157.242 406.417V21.412h-100.909V285.92l-34.775-57.17-132.275-207.338h-92.72v458.763h100.904V218.416l36.82 57.863 135.68 203.896zM823.038 331.387c0 41.33-24.546 73.017-72.27 73.017-48.41 0-72.276-31.688-72.276-73.017v-160.5c0-42.021 23.867-73.704 72.275-73.704 47.725 0 72.271 31.683 72.271 73.704zm110.459-5.513V175.708c0-97.125-69.55-166.7-182.73-166.7-113.183 0-183.408 69.575-183.408 166.7v150.166c0 96.434 70.225 167.388 183.408 167.388 113.18 0 182.73-70.954 182.73-167.388m-404.33-139.146v-33.754c0-83.35-62.046-143.966-169.092-143.966-113.183 0-182.729 73.02-182.729 168.075v148.104c0 95.058 66.82 168.075 182.73 168.075 101.591 0 167.724-59.242 167.724-142.592v-36.508H426.892v29.62c0 37.888-22.5 60.622-64.092 60.622-47.046 0-75-28.246-75-70.95V170.887c0-45.463 25.913-73.704 74.321-73.704 41.592 0 66.134 21.354 66.134 62.683v26.862zM14.383 480.175h109.092V21.412H14.383z"/></svg>