<svg width="300" height="31" viewBox="0 0 300 31" fill="none" xmlns="http://www.w3.org/2000/svg">
<path d="M18.92 29.36C18.6533 28.72 18.3867 28.0667 18.12 27.4C17.8533 26.7333 17.5867 26.0533 17.32 25.36C17.0533 24.64 16.7867 23.9333 16.52 23.24C16.1467 22.2533 15.8 21.4533 15.48 20.84C15.1867 20.2267 14.8533 19.7333 14.48 19.36C14.1333 18.96 13.6933 18.6133 13.16 18.32L15.24 18.56C14.4933 18.5867 13.8533 18.6133 13.32 18.64C12.8133 18.64 12.1867 18.6267 11.44 18.6L11.84 15.32C12.2667 15.4 12.5733 15.4533 12.76 15.48C12.9733 15.5067 13.1733 15.52 13.36 15.52C14.1333 15.52 14.8667 15.3333 15.56 14.96C16.2533 14.56 16.8267 13.9733 17.28 13.2C17.7333 12.4 17.96 11.4133 17.96 10.24C17.96 8.50667 17.5867 7.17333 16.84 6.24C16.0933 5.28 15.0933 4.8 13.84 4.8C13.4933 4.8 13.16 4.84 12.84 4.92C12.52 4.97333 12.1867 5.06667 11.84 5.2L12.16 3.56V21.12C12.16 22.56 12.2267 23.6267 12.36 24.32C12.4933 25.0133 12.6933 25.4667 12.96 25.68C13.2533 25.8667 13.64 25.9733 14.12 26C14.2267 26.2667 14.2933 26.7067 14.32 27.32C14.3733 27.9333 14.4 28.5333 14.4 29.12C13.8933 29.0933 13.2133 29.0667 12.36 29.04C11.5067 29.04 10.6267 29.0267 9.72 29C8.81333 29 8.04 29 7.4 29C6.33333 29 5.26667 29 4.2 29C3.13333 29.0267 2.13333 29.0667 1.2 29.12C1.2 28.4267 1.22667 27.8267 1.28 27.32C1.33333 26.8133 1.41333 26.3733 1.52 26C2.24 25.9467 2.78667 25.8133 3.16 25.6C3.56 25.36 3.82667 24.9333 3.96 24.32C4.09333 23.68 4.16 22.7467 4.16 21.52V9.28C4.16 8.08 4.09333 7.18667 3.96 6.6C3.82667 6.01333 3.56 5.61333 3.16 5.4C2.78667 5.16 2.22667 4.98667 1.48 4.88C1.37333 4.48 1.29333 3.93333 1.24 3.24C1.21333 2.54667 1.2 2.06667 1.2 1.8C2 1.82667 3 1.86667 4.2 1.92C5.4 1.94666 6.69333 1.96 8.08 1.96C8.85333 1.96 10 1.93333 11.52 1.88C13.04 1.8 14.6533 1.76 16.36 1.76C18.68 1.76 20.5733 2.10666 22.04 2.8C23.5067 3.46666 24.5867 4.37333 25.28 5.52C25.9733 6.66667 26.32 7.92 26.32 9.28C26.32 11.0667 26 12.5867 25.36 13.84C24.72 15.0667 23.8533 16.0133 22.76 16.68C21.6667 17.3467 20.44 17.7467 19.08 17.88L20.04 17.36C20.84 17.5733 21.48 17.8667 21.96 18.24C22.4667 18.5867 22.9467 19.1467 23.4 19.92C23.88 20.6667 24.48 21.7733 25.2 23.24C25.5467 23.9067 25.8533 24.4267 26.12 24.8C26.4133 25.1733 26.72 25.44 27.04 25.6C27.3867 25.7333 27.8133 25.8267 28.32 25.88C28.32 26.4667 28.28 27.0133 28.2 27.52C28.12 28.0267 28.0133 28.52 27.88 29C25.7733 29 23.9467 29.0267 22.4 29.08C20.88 29.1333 19.72 29.2267 18.92 29.36ZM39.8097 29.36C37.2497 29.36 35.183 28.96 33.6097 28.16C32.063 27.3333 30.9297 26.2267 30.2097 24.84C29.4897 23.4267 29.1297 21.8267 29.1297 20.04C29.1297 17.9867 29.543 16.24 30.3697 14.8C31.1964 13.36 32.3697 12.2533 33.8897 11.48C35.4364 10.7067 37.2364 10.32 39.2897 10.32C41.3697 10.32 43.0764 10.68 44.4097 11.4C45.7697 12.12 46.783 13.1467 47.4497 14.48C48.1164 15.7867 48.463 17.32 48.4897 19.08C48.2497 20.0667 47.8097 20.8533 47.1697 21.44C46.2897 21.44 45.343 21.4533 44.3297 21.48C43.3164 21.48 42.2764 21.4933 41.2097 21.52C40.143 21.52 39.0764 21.5467 38.0097 21.6C36.943 21.6533 35.9164 21.72 34.9297 21.8V18.64H41.8897C41.8897 16.8267 41.6764 15.48 41.2497 14.6C40.8497 13.72 40.2364 13.28 39.4097 13.28C38.7964 13.28 38.2764 13.5067 37.8497 13.96C37.4497 14.4133 37.143 15.0533 36.9297 15.88C36.743 16.7067 36.6497 17.68 36.6497 18.8C36.6497 20.2133 36.823 21.44 37.1697 22.48C37.543 23.52 38.1164 24.32 38.8897 24.88C39.6897 25.4133 40.7297 25.68 42.0097 25.68C42.9697 25.68 43.9297 25.5333 44.8897 25.24C45.8497 24.9467 46.623 24.5867 47.2097 24.16C47.503 24.3467 47.7564 24.7067 47.9697 25.24C48.183 25.7733 48.2897 26.3333 48.2897 26.92C47.1964 27.6667 45.9697 28.2667 44.6097 28.72C43.2497 29.1467 41.6497 29.36 39.8097 29.36ZM68.4866 27.32C67.7932 27.96 66.8332 28.4667 65.6066 28.84C64.3799 29.1867 63.0199 29.36 61.5266 29.36C59.3399 29.36 57.4466 29.0267 55.8466 28.36C54.2732 27.6667 53.0599 26.6267 52.2066 25.24C51.3532 23.8533 50.9266 22.08 50.9266 19.92C50.9266 18.32 51.2999 16.7867 52.0466 15.32C52.7932 13.8533 53.9132 12.6533 55.4066 11.72C56.8999 10.7867 58.7799 10.32 61.0466 10.32C62.6732 10.32 64.0466 10.4533 65.1666 10.72C66.3132 10.9867 67.3532 11.3733 68.2866 11.88C68.0999 12.6267 67.9666 13.4133 67.8866 14.24C67.8066 15.04 67.7666 16.0133 67.7666 17.16C67.1532 17.4267 66.4732 17.6133 65.7266 17.72C64.9799 17.8 64.2599 17.84 63.5666 17.84C63.5666 16.2933 63.3532 15.1333 62.9266 14.36C62.4999 13.5867 61.9399 13.2 61.2466 13.2C60.3132 13.2 59.6066 13.8 59.1266 15C58.6466 16.1733 58.4066 17.6267 58.4066 19.36C58.4066 20.3733 58.5666 21.3733 58.8866 22.36C59.2332 23.32 59.7799 24.12 60.5266 24.76C61.2999 25.3733 62.3132 25.68 63.5666 25.68C64.4199 25.68 65.1799 25.6 65.8466 25.44C66.5132 25.2533 67.0866 25.0267 67.5666 24.76C67.8599 25.0533 68.0866 25.4267 68.2466 25.88C68.4066 26.3067 68.4866 26.7867 68.4866 27.32ZM93.9016 22.52C93.9016 23.8267 94.0216 24.7333 94.2616 25.24C94.5016 25.7467 94.9549 26 95.6216 26C95.8082 26.4267 95.9282 26.8933 95.9816 27.4C96.0349 27.88 96.0616 28.4533 96.0616 29.12C95.4749 29.0933 94.6349 29.0667 93.5416 29.04C92.4482 29.0133 91.4349 29 90.5016 29C89.8882 29 89.1416 29 88.2616 29C87.3816 29.0267 86.5416 29.04 85.7416 29.04C84.9682 29.0667 84.3816 29.0933 83.9816 29.12C83.9816 28.56 83.9949 28.0267 84.0216 27.52C84.0749 26.9867 84.1949 26.48 84.3816 26C84.9416 26 85.3949 25.72 85.7416 25.16C86.1149 24.6 86.3016 23.5733 86.3016 22.08V19.32C86.3016 17.8 86.1016 16.7333 85.7016 16.12C85.3016 15.5067 84.6749 15.2 83.8216 15.2C83.1816 15.2 82.6082 15.4667 82.1016 16C81.5949 16.5333 81.1949 17.2667 80.9016 18.2C80.6082 19.1067 80.4616 20.1733 80.4616 21.4V22.52C80.4616 23.9067 80.6216 24.84 80.9416 25.32C81.2882 25.7733 81.7549 26 82.3416 26C82.5549 26.5067 82.6749 27 82.7016 27.48C82.7549 27.96 82.7816 28.5067 82.7816 29.12C82.3816 29.0933 81.8216 29.0667 81.1016 29.04C80.3816 29.04 79.6216 29.0267 78.8216 29C78.0482 29 77.3282 29 76.6616 29C76.0216 29 75.2482 29 74.3416 29C73.4349 29.0267 72.5682 29.04 71.7416 29.04C70.9149 29.0667 70.3016 29.0933 69.9016 29.12C69.9016 28.5067 69.9282 27.92 69.9816 27.36C70.0616 26.8 70.1682 26.3467 70.3016 26C71.3416 26 72.0216 25.76 72.3416 25.28C72.6882 24.7733 72.8616 23.8533 72.8616 22.52V18.2L80.4616 12.88C80.4616 13.2 80.4082 13.5733 80.3016 14C80.2216 14.4267 80.1149 14.8667 79.9816 15.32C80.1949 14.7867 80.4216 14.2933 80.6616 13.84C80.9016 13.3867 81.1949 12.9867 81.5416 12.64C82.1816 12 82.9549 11.4933 83.8616 11.12C84.7949 10.72 85.8216 10.52 86.9416 10.52C88.1416 10.52 89.2749 10.7467 90.3416 11.2C91.4082 11.6267 92.2616 12.32 92.9016 13.28C93.5682 14.24 93.9016 15.4933 93.9016 17.04V22.52ZM72.8616 7.44C72.8616 6.82667 72.7816 6.33333 72.6216 5.96C72.4616 5.56 72.1682 5.26667 71.7416 5.08C71.3149 4.86667 70.7016 4.72 69.9016 4.64C69.9016 4.13333 69.9282 3.61333 69.9816 3.08C70.0616 2.54667 70.2082 2.06667 70.4216 1.64C71.7549 1.64 72.9949 1.57333 74.1416 1.44C75.2882 1.30667 76.2882 1.14667 77.1416 0.959999C77.9949 0.746665 78.6349 0.533332 79.0616 0.32C79.5149 0.506666 79.8616 0.813332 80.1016 1.24C80.3416 1.64 80.4616 2.18667 80.4616 2.88V7.56H72.8616V7.44ZM72.8616 6.32H80.4616V12.88L72.8616 19.68V6.32ZM106.32 29.36C104.213 29.36 102.613 28.8133 101.52 27.72C100.426 26.6267 99.8797 24.7333 99.8797 22.04V14.72C99.453 14.5333 98.9997 14.4133 98.5197 14.36C98.0397 14.28 97.493 14.24 96.8797 14.24C96.8797 13.6267 96.9197 13.08 96.9997 12.6C97.0797 12.0933 97.2264 11.5867 97.4397 11.08H99.8797V6.48C101.08 6.34667 102.266 6.06667 103.44 5.64C104.613 5.21333 105.533 4.73333 106.2 4.2C106.68 4.38667 107.013 4.68 107.2 5.08C107.386 5.45333 107.48 6.09333 107.48 7V11.08H112.16C112.16 11.7733 112.12 12.3733 112.04 12.88C111.986 13.36 111.893 13.8267 111.76 14.28C110.933 14.28 110.16 14.3467 109.44 14.48C108.746 14.5867 108.093 14.76 107.48 15V21.56C107.48 22.7867 107.533 23.7067 107.64 24.32C107.773 24.9333 107.973 25.3467 108.24 25.56C108.533 25.7733 108.906 25.88 109.36 25.88C109.68 25.88 110.053 25.84 110.48 25.76C110.906 25.68 111.293 25.5733 111.64 25.44C112.04 26.0267 112.24 26.88 112.24 28C111.653 28.4 110.813 28.7333 109.72 29C108.626 29.24 107.493 29.36 106.32 29.36ZM129.496 11.48C129.47 12.2 129.47 12.9333 129.496 13.68C129.523 14.4 129.59 15.1067 129.696 15.8C129.243 16.0667 128.656 16.2933 127.936 16.48C127.216 16.64 126.483 16.72 125.736 16.72C125.656 16.08 125.496 15.52 125.256 15.04C125.016 14.5333 124.67 14.1333 124.216 13.84C123.763 13.5467 123.176 13.4 122.456 13.4C122.03 13.4 121.683 13.52 121.416 13.76C121.176 14 121.056 14.3067 121.056 14.68C121.056 14.9733 121.136 15.2667 121.296 15.56C121.456 15.8267 121.816 16.1333 122.376 16.48C122.963 16.8267 123.856 17.2533 125.056 17.76C126.63 18.4 127.856 19.0133 128.736 19.6C129.616 20.16 130.243 20.76 130.616 21.4C130.99 22.04 131.176 22.7867 131.176 23.64C131.176 24.8933 130.816 25.9467 130.096 26.8C129.376 27.6533 128.323 28.2933 126.936 28.72C125.55 29.1467 123.856 29.36 121.856 29.36C120.15 29.36 118.71 29.24 117.536 29C116.363 28.7867 115.216 28.4667 114.096 28.04C114.176 27.48 114.23 26.9067 114.256 26.32C114.283 25.7067 114.283 25.12 114.256 24.56C114.256 24 114.23 23.5067 114.176 23.08C114.656 22.7867 115.283 22.5733 116.056 22.44C116.83 22.28 117.55 22.2 118.216 22.2C118.35 23.5067 118.71 24.4933 119.296 25.16C119.883 25.8267 120.59 26.16 121.416 26.16C121.95 26.16 122.403 26.04 122.776 25.8C123.15 25.56 123.336 25.2 123.336 24.72C123.336 24.3467 123.243 24.0133 123.056 23.72C122.87 23.4267 122.523 23.1333 122.016 22.84C121.536 22.5467 120.83 22.2267 119.896 21.88C118.83 21.48 117.87 21.0267 117.016 20.52C116.163 20.0133 115.483 19.3733 114.976 18.6C114.496 17.8267 114.256 16.84 114.256 15.64C114.256 14.7333 114.443 13.9467 114.816 13.28C115.19 12.6133 115.736 12.0667 116.456 11.64C117.176 11.1867 118.043 10.8533 119.056 10.64C120.07 10.4267 121.203 10.32 122.456 10.32C124.056 10.32 125.39 10.4133 126.456 10.6C127.55 10.7867 128.563 11.08 129.496 11.48ZM133.183 29.12C133.183 28.4533 133.209 27.8667 133.263 27.36C133.316 26.8267 133.409 26.3733 133.543 26C134.609 25.9467 135.303 25.6933 135.623 25.24C135.969 24.76 136.143 23.8533 136.143 22.52V7.44C136.143 6.82667 136.063 6.33333 135.903 5.96C135.743 5.56 135.449 5.26667 135.023 5.08C134.596 4.86667 133.983 4.72 133.183 4.64C133.183 4.13333 133.209 3.61333 133.263 3.08C133.343 2.54667 133.489 2.06667 133.703 1.64C135.036 1.64 136.276 1.57333 137.423 1.44C138.569 1.30667 139.569 1.14667 140.423 0.959999C141.276 0.746665 141.916 0.533332 142.343 0.32C142.796 0.506666 143.143 0.813332 143.383 1.24C143.623 1.64 143.743 2.18667 143.743 2.88V22.52C143.743 23.8 143.863 24.68 144.103 25.16C144.343 25.64 144.823 25.92 145.543 26C145.676 26.3733 145.756 26.8267 145.783 27.36C145.836 27.8667 145.863 28.4533 145.863 29.12C145.356 29.0667 144.516 29.0267 143.343 29C142.169 29 140.956 29 139.703 29C138.876 29 138.009 29 137.103 29C136.223 29.0267 135.423 29.04 134.703 29.04C134.009 29.0667 133.503 29.0933 133.183 29.12ZM150.143 29.36C149.769 28.7733 149.276 28.0667 148.663 27.24C148.076 26.3867 147.423 25.5067 146.703 24.6C146.009 23.6667 145.303 22.76 144.583 21.88C143.889 20.9733 143.236 20.1733 142.623 19.48L146.383 16.12C146.996 15.5867 147.383 15.2 147.543 14.96C147.729 14.72 147.823 14.52 147.823 14.36C147.823 14.1467 147.756 13.9867 147.623 13.88C147.489 13.7733 147.209 13.7067 146.783 13.68C146.596 13.1467 146.463 12.6267 146.383 12.12C146.303 11.6133 146.263 11.1067 146.263 10.6C146.583 10.6 147.103 10.6133 147.823 10.64C148.569 10.64 149.409 10.6533 150.343 10.68C151.276 10.68 152.183 10.68 153.063 10.68C153.809 10.68 154.489 10.68 155.103 10.68C155.743 10.6533 156.316 10.6267 156.823 10.6C156.823 11.1867 156.783 11.72 156.703 12.2C156.649 12.68 156.529 13.1733 156.343 13.68C155.569 13.7333 154.903 13.84 154.343 14C153.809 14.1333 153.289 14.36 152.783 14.68C152.303 15 151.743 15.4667 151.103 16.08L148.543 18.44L147.823 15.92C149.396 17.1467 150.809 18.4533 152.063 19.84C153.316 21.2 154.476 22.6533 155.543 24.2C155.863 24.6267 156.156 24.9733 156.423 25.24C156.689 25.48 156.956 25.6533 157.223 25.76C157.516 25.8667 157.863 25.9467 158.263 26C158.263 26.48 158.223 26.9867 158.143 27.52C158.063 28.0533 157.916 28.5467 157.703 29C157.036 29 156.223 29.0133 155.263 29.04C154.303 29.0667 153.356 29.0933 152.423 29.12C151.489 29.1733 150.729 29.2533 150.143 29.36ZM159.667 29.12C159.667 28.4533 159.694 27.8667 159.747 27.36C159.801 26.8267 159.894 26.3733 160.027 26C161.094 25.9467 161.787 25.6933 162.107 25.24C162.454 24.76 162.627 23.8533 162.627 22.52V7.04C162.627 6.53333 162.534 6.12 162.347 5.8C162.161 5.48 161.854 5.22667 161.427 5.04C161.001 4.85333 160.414 4.72 159.667 4.64C159.667 4.13333 159.694 3.61333 159.747 3.08C159.827 2.54667 159.974 2.06667 160.187 1.64C161.521 1.64 162.761 1.57333 163.907 1.44C165.054 1.30667 166.054 1.14667 166.907 0.959999C167.761 0.746665 168.401 0.533332 168.827 0.32C169.281 0.506666 169.627 0.813332 169.867 1.24C170.107 1.64 170.227 2.18667 170.227 2.88V22.52C170.227 23.8533 170.401 24.76 170.747 25.24C171.094 25.6933 171.801 25.9467 172.867 26C173.001 26.3733 173.081 26.8267 173.107 27.36C173.161 27.8667 173.187 28.4533 173.187 29.12C172.867 29.0933 172.347 29.0667 171.627 29.04C170.907 29.04 170.094 29.0267 169.187 29C168.281 29 167.361 29 166.427 29C165.521 29 164.601 29 163.667 29C162.761 29.0267 161.947 29.04 161.227 29.04C160.507 29.0667 159.987 29.0933 159.667 29.12ZM189.304 29.36C188.718 29.1467 188.318 28.8533 188.104 28.48C187.891 28.08 187.784 27.6133 187.784 27.08C187.784 26.68 187.824 26.2133 187.904 25.68C188.011 25.12 188.158 24.5867 188.344 24.08L188.504 23.84C188.211 24.8 187.864 25.6 187.464 26.24C187.064 26.88 186.611 27.4 186.104 27.8C185.491 28.3067 184.758 28.68 183.904 28.92C183.078 29.16 182.144 29.28 181.104 29.28C179.211 29.28 177.718 28.8933 176.624 28.12C175.531 27.32 174.984 26.1467 174.984 24.6C174.984 23.5867 175.211 22.72 175.664 22C176.118 21.2533 176.744 20.6267 177.544 20.12C178.371 19.5867 179.291 19.16 180.304 18.84C181.344 18.4933 182.438 18.2133 183.584 18C184.758 17.7867 185.931 17.6 187.104 17.44C187.104 16.9333 187.078 16.4667 187.024 16.04C186.971 15.6133 186.878 15.2267 186.744 14.88C186.638 14.5067 186.451 14.1867 186.184 13.92C185.891 13.6 185.558 13.3867 185.184 13.28C184.811 13.1467 184.464 13.08 184.144 13.08C183.531 13.08 183.024 13.2667 182.624 13.64C182.251 13.9867 181.958 14.4933 181.744 15.16C181.531 15.8 181.371 16.56 181.264 17.44C180.331 17.44 179.531 17.4133 178.864 17.36C178.198 17.3067 177.544 17.16 176.904 16.92C176.958 16.1467 176.971 15.3467 176.944 14.52C176.944 13.6933 176.838 12.7733 176.624 11.76C177.798 11.3067 179.211 10.9467 180.864 10.68C182.518 10.4133 184.118 10.28 185.664 10.28C187.691 10.28 189.264 10.4933 190.384 10.92C191.504 11.32 192.331 11.7867 192.864 12.32C193.344 12.8 193.771 13.52 194.144 14.48C194.518 15.4133 194.704 16.84 194.704 18.76V21.4C194.704 22.36 194.758 23.0933 194.864 23.6C194.971 24.08 195.184 24.4 195.504 24.56C195.824 24.72 196.304 24.8133 196.944 24.84C197.051 25.4267 197.064 25.9867 196.984 26.52C196.931 27.0533 196.771 27.5467 196.504 28C195.278 28.0267 194.051 28.1467 192.824 28.36C191.598 28.5733 190.424 28.9067 189.304 29.36ZM183.864 24.92C184.371 24.92 184.864 24.76 185.344 24.44C185.851 24.12 186.264 23.64 186.584 23C186.931 22.36 187.104 21.5867 187.104 20.68V20C186.198 20.1867 185.438 20.4 184.824 20.64C184.211 20.8533 183.718 21.0933 183.344 21.36C182.998 21.6267 182.744 21.92 182.584 22.24C182.451 22.56 182.384 22.9067 182.384 23.28C182.384 23.8667 182.531 24.2933 182.824 24.56C183.118 24.8 183.464 24.92 183.864 24.92ZM209.379 21.12C209.379 22.2667 209.512 23.1867 209.779 23.88C210.046 24.5467 210.486 25.0533 211.099 25.4C211.739 25.72 212.619 25.92 213.739 26C213.899 26.4267 213.992 26.9333 214.019 27.52C214.072 28.08 214.099 28.6133 214.099 29.12C213.592 29.0933 212.926 29.0667 212.099 29.04C211.299 29.04 210.446 29.0267 209.539 29C208.632 29 207.752 29 206.899 29C205.459 29 203.979 29 202.459 29C200.966 29.0267 199.752 29.0667 198.819 29.12C198.819 28.4 198.832 27.8 198.859 27.32C198.912 26.8133 198.992 26.3733 199.099 26C199.819 25.9467 200.366 25.8133 200.739 25.6C201.139 25.36 201.406 24.9333 201.539 24.32C201.699 23.68 201.779 22.7467 201.779 21.52V19.92H209.379V21.12ZM209.379 17.16V20.84H201.779V16.52L209.379 12.88C209.379 13.3067 209.312 13.84 209.179 14.48C209.046 15.0933 208.846 15.96 208.579 17.08L209.379 17.16ZM208.499 17.2C208.659 16.72 208.872 16.1067 209.139 15.36C209.406 14.6133 209.632 14.08 209.819 13.76C210.406 12.8267 211.152 12.0533 212.059 11.44C212.966 10.8267 213.952 10.52 215.019 10.52C216.086 10.52 217.072 10.84 217.979 11.48C217.872 12.0933 217.779 12.8133 217.699 13.64C217.619 14.44 217.566 15.2533 217.539 16.08C217.512 16.88 217.526 17.6133 217.579 18.28C217.046 18.52 216.339 18.68 215.459 18.76C214.606 18.8133 213.899 18.84 213.339 18.84C213.312 17.96 213.179 17.32 212.939 16.92C212.699 16.4933 212.312 16.28 211.779 16.28C211.432 16.28 211.072 16.4933 210.699 16.92C210.326 17.3467 210.006 17.8933 209.739 18.56C209.499 19.2 209.379 19.8933 209.379 20.64L208.499 17.2ZM201.779 20.84V18.2C201.779 17.32 201.726 16.64 201.619 16.16C201.512 15.68 201.259 15.3333 200.859 15.12C200.459 14.88 199.819 14.72 198.939 14.64C198.939 14.1333 198.966 13.6133 199.019 13.08C199.099 12.5467 199.246 12.0667 199.459 11.64C201.432 11.64 203.192 11.5067 204.739 11.24C206.286 10.9467 207.379 10.64 208.019 10.32C208.472 10.5067 208.806 10.8133 209.019 11.24C209.259 11.64 209.379 12.1867 209.379 12.88L201.779 20.84ZM243.394 22.52C243.394 23.8267 243.514 24.7333 243.754 25.24C243.994 25.7467 244.447 26 245.114 26C245.3 26.4267 245.42 26.8933 245.474 27.4C245.527 27.88 245.554 28.4533 245.554 29.12C244.967 29.0933 244.127 29.0667 243.034 29.04C241.94 29.0133 240.927 29 239.994 29C239.38 29 238.634 29 237.754 29C236.874 29.0267 236.034 29.04 235.234 29.04C234.46 29.0667 233.874 29.0933 233.474 29.12C233.474 28.56 233.487 28.0267 233.514 27.52C233.567 26.9867 233.687 26.48 233.874 26C234.434 26 234.887 25.72 235.234 25.16C235.607 24.6 235.794 23.5733 235.794 22.08V19.32C235.794 17.8 235.594 16.7333 235.194 16.12C234.794 15.5067 234.167 15.2 233.314 15.2C232.674 15.2 232.1 15.4667 231.594 16C231.087 16.5333 230.687 17.2667 230.394 18.2C230.1 19.1067 229.954 20.1733 229.954 21.4V22.52C229.954 23.9067 230.114 24.84 230.434 25.32C230.78 25.7733 231.247 26 231.834 26C232.047 26.5067 232.167 27 232.194 27.48C232.247 27.96 232.274 28.5067 232.274 29.12C231.874 29.0933 231.314 29.0667 230.594 29.04C229.874 29.04 229.114 29.0267 228.314 29C227.54 29 226.82 29 226.154 29C225.514 29 224.74 29 223.834 29C222.927 29.0267 222.06 29.04 221.234 29.04C220.407 29.0667 219.794 29.0933 219.394 29.12C219.394 28.5067 219.42 27.92 219.474 27.36C219.554 26.8 219.66 26.3467 219.794 26C220.834 26 221.514 25.76 221.834 25.28C222.18 24.7733 222.354 23.8533 222.354 22.52V18.2L229.954 12.88C229.954 13.2 229.9 13.5733 229.794 14C229.714 14.4267 229.607 14.8667 229.474 15.32C229.687 14.7867 229.914 14.2933 230.154 13.84C230.394 13.3867 230.687 12.9867 231.034 12.64C231.674 12 232.447 11.4933 233.354 11.12C234.287 10.72 235.314 10.52 236.434 10.52C237.634 10.52 238.767 10.7467 239.834 11.2C240.9 11.6267 241.754 12.32 242.394 13.28C243.06 14.24 243.394 15.4933 243.394 17.04V22.52ZM222.354 7.44C222.354 6.82667 222.274 6.33333 222.114 5.96C221.954 5.56 221.66 5.26667 221.234 5.08C220.807 4.86667 220.194 4.72 219.394 4.64C219.394 4.13333 219.42 3.61333 219.474 3.08C219.554 2.54667 219.7 2.06667 219.914 1.64C221.247 1.64 222.487 1.57333 223.634 1.44C224.78 1.30667 225.78 1.14667 226.634 0.959999C227.487 0.746665 228.127 0.533332 228.554 0.32C229.007 0.506666 229.354 0.813332 229.594 1.24C229.834 1.64 229.954 2.18667 229.954 2.88V7.56H222.354V7.44ZM222.354 6.32H229.954V12.88L222.354 19.68V6.32ZM257.427 29.36C254.867 29.36 252.8 28.96 251.227 28.16C249.68 27.3333 248.547 26.2267 247.827 24.84C247.107 23.4267 246.747 21.8267 246.747 20.04C246.747 17.9867 247.16 16.24 247.987 14.8C248.814 13.36 249.987 12.2533 251.507 11.48C253.054 10.7067 254.854 10.32 256.907 10.32C258.987 10.32 260.694 10.68 262.027 11.4C263.387 12.12 264.4 13.1467 265.067 14.48C265.734 15.7867 266.08 17.32 266.107 19.08C265.867 20.0667 265.427 20.8533 264.787 21.44C263.907 21.44 262.96 21.4533 261.947 21.48C260.934 21.48 259.894 21.4933 258.827 21.52C257.76 21.52 256.694 21.5467 255.627 21.6C254.56 21.6533 253.534 21.72 252.547 21.8V18.64H259.507C259.507 16.8267 259.294 15.48 258.867 14.6C258.467 13.72 257.854 13.28 257.027 13.28C256.414 13.28 255.894 13.5067 255.467 13.96C255.067 14.4133 254.76 15.0533 254.547 15.88C254.36 16.7067 254.267 17.68 254.267 18.8C254.267 20.2133 254.44 21.44 254.787 22.48C255.16 23.52 255.734 24.32 256.507 24.88C257.307 25.4133 258.347 25.68 259.627 25.68C260.587 25.68 261.547 25.5333 262.507 25.24C263.467 24.9467 264.24 24.5867 264.827 24.16C265.12 24.3467 265.374 24.7067 265.587 25.24C265.8 25.7733 265.907 26.3333 265.907 26.92C264.814 27.6667 263.587 28.2667 262.227 28.72C260.867 29.1467 259.267 29.36 257.427 29.36ZM268.624 29.12C268.624 28.4533 268.65 27.8667 268.704 27.36C268.757 26.8267 268.85 26.3733 268.984 26C270.05 25.9467 270.744 25.6933 271.064 25.24C271.41 24.76 271.584 23.8533 271.584 22.52V17.44C271.584 16.8267 271.504 16.3333 271.344 15.96C271.184 15.56 270.89 15.2667 270.464 15.08C270.037 14.8667 269.424 14.72 268.624 14.64C268.624 14.1333 268.65 13.6133 268.704 13.08C268.784 12.5467 268.93 12.0667 269.144 11.64C270.477 11.64 271.717 11.5733 272.864 11.44C274.01 11.3067 275.01 11.1467 275.864 10.96C276.717 10.7467 277.357 10.5333 277.784 10.32C278.237 10.5067 278.584 10.8133 278.824 11.24C279.064 11.64 279.184 12.1867 279.184 12.88V22.52C279.184 23.8533 279.357 24.76 279.704 25.24C280.05 25.6933 280.757 25.9467 281.824 26C281.957 26.3733 282.037 26.8267 282.064 27.36C282.117 27.8667 282.144 28.4533 282.144 29.12C281.824 29.0933 281.304 29.0667 280.584 29.04C279.864 29.04 279.05 29.0267 278.144 29C277.237 29 276.317 29 275.384 29C274.477 29 273.557 29 272.624 29C271.717 29.0267 270.904 29.04 270.184 29.04C269.464 29.0667 268.944 29.0933 268.624 29.12ZM274.744 8.4C273.49 8.4 272.49 8.10667 271.744 7.52C271.024 6.93333 270.664 6.14667 270.664 5.16C270.664 3.98667 271.077 3.10666 271.904 2.52C272.73 1.90666 273.77 1.6 275.024 1.6C276.437 1.6 277.504 1.89333 278.224 2.48C278.97 3.06667 279.344 3.93333 279.344 5.08C279.344 6.06666 278.93 6.86666 278.104 7.48C277.304 8.09333 276.184 8.4 274.744 8.4ZM292.999 29.36C290.893 29.36 289.293 28.8133 288.199 27.72C287.106 26.6267 286.559 24.7333 286.559 22.04V14.72C286.133 14.5333 285.679 14.4133 285.199 14.36C284.719 14.28 284.173 14.24 283.559 14.24C283.559 13.6267 283.599 13.08 283.679 12.6C283.759 12.0933 283.906 11.5867 284.119 11.08H286.559V6.48C287.759 6.34667 288.946 6.06667 290.119 5.64C291.293 5.21333 292.213 4.73333 292.879 4.2C293.359 4.38667 293.693 4.68 293.879 5.08C294.066 5.45333 294.159 6.09333 294.159 7V11.08H298.839C298.839 11.7733 298.799 12.3733 298.719 12.88C298.666 13.36 298.573 13.8267 298.439 14.28C297.613 14.28 296.839 14.3467 296.119 14.48C295.426 14.5867 294.773 14.76 294.159 15V21.56C294.159 22.7867 294.213 23.7067 294.319 24.32C294.453 24.9333 294.653 25.3467 294.919 25.56C295.213 25.7733 295.586 25.88 296.039 25.88C296.359 25.88 296.733 25.84 297.159 25.76C297.586 25.68 297.973 25.5733 298.319 25.44C298.719 26.0267 298.919 26.88 298.919 28C298.333 28.4 297.493 28.7333 296.399 29C295.306 29.24 294.173 29.36 292.999 29.36Z" fill="white"/>
</svg>
