<svg xmlns="http://www.w3.org/2000/svg" width="683" height="158" viewBox="-9.84 24.799999999999997 683 158" preserveAspectRatio="xMinYMin meet">
                <path d="M136.80 48L98.88 48L73.52 119.12L48 48L10.16 48L10.16 160L36.88 160L36.88 83.60L59.28 149.44L87.68 149.44L110.08 83.36L110.08 160L136.80 160ZM234.88 81.52L210.64 81.52L210.64 90C205.92 83.84 198.72 79.36 188.16 79.36C167.12 79.36 151.60 97.60 151.60 120.64C151.60 143.84 167.12 162.08 188.08 162.08C198.72 162.08 205.92 157.68 210.64 151.52L210.64 160L234.88 160ZM194.08 102.72C203.92 102.72 210.88 110.32 210.88 120.72C210.88 131.12 203.92 138.72 194.08 138.72C184.08 138.72 177.36 130.96 177.36 120.72C177.36 110.48 184.08 102.72 194.08 102.72ZM297.84 79.36C288.24 79.36 280.96 82.96 276.40 90.56L276.40 81.52L252.40 81.52L252.40 160L277.44 160L277.44 117.60C277.44 107.84 282.88 103.44 291.76 103.44C296.24 103.44 300.96 104.40 304.32 105.52L306.64 80.56C304.72 80 301.52 79.36 297.84 79.36ZM343.12 44.80L318.08 44.80L318.08 160L343.12 160L343.12 129.68L348.48 129.68L367.84 160L398.08 160L368.96 118.56L398 81.52L367.68 81.52L349.12 107.52L343.12 107.52ZM497.12 45.92C462.56 45.92 438.08 70.56 438.08 104C438.08 137.44 462.56 162.08 497.12 162.08C531.68 162.08 556.16 137.44 556.16 104C556.16 70.56 531.68 45.92 497.12 45.92ZM497.12 71.52C515.36 71.52 528.32 84.80 528.32 104C528.32 123.20 515.36 136.48 497.12 136.48C478.88 136.48 465.92 123.20 465.92 104C465.92 84.80 478.88 71.52 497.12 71.52ZM652.64 48L559.60 48L559.60 72.80L592.80 72.80L592.80 160L619.52 160L619.52 72.80L652.64 72.80Z"/>
            </svg>