<svg xmlns="http://www.w3.org/2000/svg" width="326" height="192" viewBox="-8.56 62 326 192">
            <path d="M113.76 72L65.88 72L1.44 240L43.32 240L56.04 204.72L122.76 204.72L135.48 240L178.20 240ZM89.40 111.84L109.80 168.48L69 168.48ZM307.32 122.28L270.96 122.28L270.96 135C263.88 125.76 253.08 119.04 237.24 119.04C205.68 119.04 182.40 146.40 182.40 180.96C182.40 215.76 205.68 243.12 237.12 243.12C253.08 243.12 263.88 236.52 270.96 227.28L270.96 240L307.32 240ZM246.12 154.08C260.88 154.08 271.32 165.48 271.32 181.08C271.32 196.68 260.88 208.08 246.12 208.08C231.12 208.08 221.04 196.44 221.04 181.08C221.04 165.72 231.12 154.08 246.12 154.08Z"/>
        </svg>